<svg width="67" height="70" viewBox="0 0 67 70" fill="none" xmlns="http://www.w3.org/2000/svg">
<rect x="33.5" y="40.3853" width="2.2712" height="29.6154" rx="1.1356" fill="white"/>
<rect y="33.9233" width="29.5256" height="2.15385" rx="1.07692" fill="white"/>
<rect x="11.3552" y="27.4609" width="18.1696" height="2.15385" rx="1.07692" fill="white"/>
<rect width="18.1696" height="2.15385" rx="1.07692" transform="matrix(1 0 0 -1 11.3552 42.5391)" fill="white"/>
<rect x="57.9163" y="42.5391" width="18.1696" height="2.15385" rx="1.07692" transform="rotate(180 57.9163 42.5391)" fill="white"/>
<rect width="18.1696" height="2.15385" rx="1.07692" transform="matrix(-1 0 0 1 57.9163 27.4609)" fill="white"/>
<rect x="39.7456" y="33.9233" width="27.2544" height="2.15385" rx="1.07692" fill="white"/>
<rect x="33.5" width="2.2712" height="29.6154" rx="1.1356" fill="white"/>
<rect x="27.1621" y="11.6665" width="2.2712" height="17.2308" rx="1.1356" fill="white"/>
<rect width="2.2712" height="17.2308" rx="1.1356" transform="matrix(1 0 0 -1 27.2544 57.6152)" fill="white"/>
<rect x="42.0178" y="57.6152" width="2.2712" height="17.2308" rx="1.1356" transform="rotate(180 42.0178 57.6152)" fill="white"/>
<rect width="2.2712" height="17.2308" rx="1.1356" transform="matrix(-1 0 0 1 42.0178 12.3843)" fill="white"/>
<ellipse cx="34.6694" cy="34.9995" rx="4.2849" ry="4.42529" fill="white"/>
<ellipse cx="49.1152" cy="19.6537" rx="4.25849" ry="4.03846" fill="white"/>
<ellipse cx="20.726" cy="47.6542" rx="4.25849" ry="4.03846" fill="white"/>
<ellipse cx="49.1132" cy="47.654" rx="2.5551" ry="2.42308" fill="white"/>
<ellipse cx="20.7253" cy="22.3464" rx="2.5551" ry="2.42308" fill="white"/>
</svg>
